# xmcd
#
# Track frame offsets:
# 150
# 15649
# 32391
# 45091
# 58460
# 66698
# 71434
# 90604
# 107918
# 112086
# 118604
# 120155
# 132612
# 136023
# 146724
# 169221
# 169887
# 199996
# 223284
# 224745
# 237031
# 291013
# 311235
# 312988
# 319982
# 321344
# 327713
# 332298
# 340234
# 350915
#
# Disc length: 4800 seconds
#
# Revision: 0
# Processed by: cddbd v1.5.1PL2 Copyright (c) Steve Scherf et al.
# Submitted via: Audion 3.0.2 (http://www.panic.com/audion/)
#
DISCID=ec12be1e
DTITLE=uj - majec
DYEAR=1900
DGENRE=
TTITLE0=t
TTITLE1=t
TTITLE2=t
TTITLE3=t
TTITLE4=t
TTITLE5=t
TTITLE6=t
TTITLE7=t
TTITLE8=t
TTITLE9=t
TTITLE10=t
TTITLE11=t
TTITLE12=t
TTITLE13=t
TTITLE14=t
TTITLE15=t
TTITLE16=t
TTITLE17=t
TTITLE18=t
TTITLE19=t
TTITLE20=t
TTITLE21=t
TTITLE22=t
TTITLE23=t
TTITLE24=t
TTITLE25=t
TTITLE26=t
TTITLE27=t
TTITLE28=t
TTITLE29=t
EXTD=
EXTT0=
EXTT1=
EXTT2=
EXTT3=
EXTT4=
EXTT5=
EXTT6=
EXTT7=
EXTT8=
EXTT9=
EXTT10=
EXTT11=
EXTT12=
EXTT13=
EXTT14=
EXTT15=
EXTT16=
EXTT17=
EXTT18=
EXTT19=
EXTT20=
EXTT21=
EXTT22=
EXTT23=
EXTT24=
EXTT25=
EXTT26=
EXTT27=
EXTT28=
EXTT29=
PLAYORDER=
